<svg xmlns="http://www.w3.org/2000/svg" width="411" height="154" viewBox="0 0 411 154"><defs><style>.a{fill:#ece6cf;}.b{fill:#093c20;}.c{fill:#fff;}</style></defs><g transform="translate(-814 -1563)"><rect class="a" width="411" height="153" rx="8" transform="translate(814 1563)"/><rect class="b" width="127" height="153" rx="8" transform="translate(814 1564)"/><g transform="translate(800.835 1502.042)"><g transform="translate(42.165 101.958)"><path class="c" d="M102.875,172.681h-.42c-.839-2.126-1.6-4.288-2.566-6.355a2.455,2.455,0,0,0-1.744-1.256q-15.051-.116-30.1-.011a2.229,2.229,0,0,0-1.686,1.036c-.941,2.149-1.685,4.383-2.5,6.586h-.42l-3.794-1.8,6.044-15.8H42.165V101.96c9.816,0,19.454-.006,29.091,0q26.509.02,53.017.052v53.105H100.462l6.015,15.724ZM46.625,150.406H119.53v-43.8H46.625ZM97.63,160.489c-.66-1.707-1.136-3.152-1.795-4.509a1.842,1.842,0,0,0-1.382-.824q-11.4-.077-22.8,0a1.879,1.879,0,0,0-1.431.8c-.677,1.421-1.163,2.932-1.769,4.536Z" transform="translate(-42.165 -101.958)"/><path class="c" d="M132.962,142.424a16.52,16.52,0,1,1-16.432-16.531A16.5,16.5,0,0,1,132.962,142.424Zm-16.421,12.014a12.1,12.1,0,1,0-12.192-11.959A12.138,12.138,0,0,0,116.541,154.438Z" transform="translate(-75.568 -115.8)"/><path class="c" d="M129.518,156.069c0-1.532-.08-3.069.022-4.594.1-1.563,1.1-2.089,2.426-1.269,2.374,1.465,4.7,3,7.006,4.578,1.19.813,1.275,1.812.027,2.678-2.292,1.59-4.592,3.173-6.938,4.681-1.508.969-2.473.389-2.538-1.477-.054-1.53-.011-3.063-.011-4.6Z" transform="translate(-92.667 -129.639)"/></g></g></g></svg>