<svg xmlns="http://www.w3.org/2000/svg" width="411" height="154" viewBox="0 0 411 154"><defs><style>.a{fill:#ece6cf;}.b{fill:#093c20;}.c{fill:#fff;}</style></defs><g transform="translate(-814 -1394)"><rect class="a" width="411" height="153" rx="8" transform="translate(814 1394)"/><rect class="b" width="127" height="153" rx="8" transform="translate(814 1395)"/><g transform="translate(813.105 1399.659)"><g transform="translate(32.895 33.341)"><path class="c" d="M32.9,108.448V72.137H35.15c14.126,0,28.252-.024,42.379.035a2.6,2.6,0,0,0,2.8-1.782C85.694,58.839,91.148,47.33,96.577,35.808c1.061-2.252,2.287-2.925,4.616-2.171a11.11,11.11,0,0,1,3.555,1.946c1.812,1.49,1.95,2.64.948,4.771Q98.729,55.188,91.753,70.018c-.283.6-.544,1.213-.908,2.029h17.067v36.4Zm39.29-9.671c1.791-7.828,1.781-15.988,5.667-23.319H36.1v29.766c.65.046,1.193.118,1.738.118q32.515.008,65.029.038c1.575,0,1.988-.457,1.976-2-.069-8.749-.032-17.5-.038-26.249,0-.545-.066-1.09-.112-1.8-4.619,0-9.107.06-13.593-.035a2.324,2.324,0,0,0-2.659,1.687A39.53,39.53,0,0,1,78.213,92.206c-1.035.992-1.94,2.119-2.91,3.18Q73.749,97.085,72.185,98.776ZM76.8,88.141l.811.426c1.692-2.108,3.855-3.989,5-6.362,6.774-14.054,13.281-28.237,19.969-42.333.835-1.759-.014-2.319-1.258-2.994-1.444-.783-1.912.048-2.457,1.219-6.086,13.069-12.294,26.082-18.284,39.2C79,80.76,78.046,84.517,76.8,88.141Z" transform="translate(-32.895 -33.341)"/><path class="c" d="M83.534,167.262h-20.9v2.91h20.9ZM62.59,161.97H83.472v-2.807H62.59Zm.026,16.236H83.51V175.35H62.616Z" transform="translate(-51.396 -111.733)"/><path class="c" d="M83.6,180.648v2.91H62.7v-2.91Z" transform="translate(-51.464 -125.119)"/><path class="c" d="M62.59,161.97v-2.807H83.472v2.807Z" transform="translate(-51.396 -111.733)"/><path class="c" d="M62.659,204.959V202.1H83.553v2.856Z" transform="translate(-51.439 -138.486)"/></g></g></g></svg>