<svg xmlns="http://www.w3.org/2000/svg" width="411" height="154" viewBox="0 0 411 154"><defs><style>.a{fill:#ece6cf;}.b{fill:#093c20;}.c{fill:#fff;}</style></defs><g transform="translate(-814 -1732)"><rect class="a" width="411" height="153" rx="8" transform="translate(814 1732)"/><rect class="b" width="127" height="153" rx="8" transform="translate(814 1733)"/><path class="c" d="M222.794,21.14H182.656A23.306,23.306,0,0,0,159.35,44.446v.894a23.306,23.306,0,0,0,23.306,23.306h40.138A23.306,23.306,0,0,0,246.1,45.34v-.894A23.306,23.306,0,0,0,222.794,21.14ZM187.506,51.331,182.784,47.9l-4.722,3.427,1.8-5.548-4.718-3.431h5.836l1.8-5.553,1.8,5.553h5.836L185.7,45.783Zm20.121,0L202.905,47.9l-4.722,3.427,1.8-5.548-4.722-3.431h5.84l1.8-5.553,1.8,5.553h5.836l-4.722,3.431Zm20.121,0L223.026,47.9,218.3,51.331l1.8-5.548-4.722-3.431h5.84l1.8-5.553,1.8,5.553h5.836l-4.722,3.431Z" transform="translate(674.65 1764.86)"/></g></svg>