<svg xmlns="http://www.w3.org/2000/svg" width="411" height="154" viewBox="0 0 411 154"><defs><style>.a{fill:#ece6cf;}.b{fill:#093c20;}.c{fill:#fff;}</style></defs><g transform="translate(-376 -1732)"><rect class="a" width="411" height="153" rx="8" transform="translate(376 1732)"/><rect class="b" width="127" height="153" rx="8" transform="translate(376 1733)"/><g transform="translate(315.03 1766.66)"><path class="c" d="M147.324,54.334a10.387,10.387,0,0,0-8.206,4.017l-27.81-13.6a10.3,10.3,0,0,0,.454-3.039,10.434,10.434,0,0,0-.3-2.465L139.35,25.367a10.37,10.37,0,1,0-2.419-6.65,10.283,10.283,0,0,0,.38,2.784L109.548,35.325a10.376,10.376,0,1,0-.387,13.246l28.056,13.713a10.4,10.4,0,1,0,10.107-7.95ZM141.3,18.718a6,6,0,1,1,.05.772A5.844,5.844,0,0,1,141.3,18.718ZM107.291,42.795a6,6,0,1,1,.081-1.5c.01.141.017.282.017.427A5.976,5.976,0,0,1,107.291,42.795Zm40.033,27.929a6.023,6.023,0,0,1-6.019-6.012c0-.141,0-.282.017-.42a6.03,6.03,0,0,1,6-5.592,6.012,6.012,0,1,1,0,12.023Z"/></g></g></svg>