<svg xmlns="http://www.w3.org/2000/svg" width="411" height="153" viewBox="0 0 411 153"><defs><style>.a{fill:#ece6cf;}.b{fill:#093c20;}.c{fill:#fff;}</style></defs><g transform="translate(-376 -1563)"><rect class="a" width="411" height="153" rx="8" transform="translate(376 1563)"/><rect class="b" width="127" height="153" rx="8" transform="translate(376 1563)"/><g transform="translate(407.217 1607.217)"><path class="c" d="M228.7,87.852a23.459,23.459,0,1,0-23.459-23.459A23.486,23.486,0,0,0,228.7,87.852Zm0-43.839a20.38,20.38,0,1,1-20.38,20.38A20.4,20.4,0,0,1,228.7,44.013Z" transform="translate(-205.239 -40.934)"/></g><g transform="translate(400 1600)"><path class="c" d="M221.858,88.22a30.682,30.682,0,0,0,23.855-11.4,30.671,30.671,0,1,0-23.855,11.4Zm0-58.271a27.591,27.591,0,0,1,21.46,44.935,27.6,27.6,0,0,1-21.46,10.257,27.6,27.6,0,1,1,0-55.192Z" transform="translate(-191.18 -26.87)"/></g><g transform="translate(439.407 1620.399)"><ellipse class="c" cx="1.097" cy="1.097" rx="1.097" ry="1.097" transform="translate(0)"/></g><g transform="translate(430.485 1626.832)"><ellipse class="c" cx="1.176" cy="1.176" rx="1.176" ry="1.176" transform="translate(0)"/></g><g transform="translate(471.933 1671.916)"><ellipse class="c" cx="1.176" cy="1.176" rx="1.176" ry="1.176" transform="translate(0)"/></g><g transform="translate(437.078 1639.816)"><ellipse class="c" cx="1.176" cy="1.176" rx="1.176" ry="1.176" transform="translate(0)"/></g><g transform="translate(423.989 1620.47)"><path class="c" d="M240.229,68.295H251.6a1.026,1.026,0,1,0,0-2.053H240.229a1.026,1.026,0,0,0,0,2.053Z" transform="translate(-239.203 -66.242)"/></g><g transform="translate(430.369 1633.533)"><path class="c" d="M228.163,93.421h11.365a1.026,1.026,0,0,0,0-2.053H228.163a1.026,1.026,0,0,0,0,2.053Z" transform="translate(-227.137 -91.368)"/></g><g transform="translate(421.487 1639.966)"><path class="c" d="M244.964,105.793H256.33a1.026,1.026,0,1,0,0-2.053H244.964a1.026,1.026,0,1,0,0,2.053Z" transform="translate(-243.938 -103.74)"/></g><g transform="translate(415.027 1626.982)"><path class="c" d="M257.183,80.82h11.366a1.026,1.026,0,1,0,0-2.053H257.183a1.026,1.026,0,1,0,0,2.053Z" transform="translate(-256.157 -78.767)"/></g><g transform="translate(448.286 1648.443)"><path class="c" d="M186.713,149.639a4.753,4.753,0,0,0,3.363-8.11l-22.2-22.2-.717.889a27.751,27.751,0,0,1-5.2,4.969L161,125.9l22.354,22.354A4.735,4.735,0,0,0,186.713,149.639Zm-18.685-27.255,20.6,20.6a2.71,2.71,0,0,1,0,3.819,2.708,2.708,0,0,1-3.819,0l-20.678-20.678A29.867,29.867,0,0,0,168.027,122.383Z" transform="translate(-161 -119.332)"/></g></g></svg>