<svg xmlns="http://www.w3.org/2000/svg" width="411" height="153" viewBox="0 0 411 153"><defs><style>.a{fill:#ece6cf;}.b{fill:#093c20;}.c{fill:#fff;}</style></defs><g transform="translate(-376 -1394)"><rect class="a" width="411" height="153" rx="8" transform="translate(376 1394)"/><rect class="b" width="127" height="153" rx="8" transform="translate(376 1394)"/><g transform="translate(192.679 1410.703)"><g transform="translate(208.321 15.297)"><path class="c" d="M246.526,15.331c1.9,0,3.8-.05,5.7.016,1.5.052,2.649.707,2.705,2.391.056,1.664-1,2.3-2.5,2.623-1.012.215-2.66.574-2.8,1.16a8.637,8.637,0,0,0,.114,4.847c.287.749,2.125,1.062,3.315,1.277A36.639,36.639,0,0,1,273.77,38.489c10.683,11.291,14.04,24.6,9,39.31-4.994,14.594-15.647,23.284-30.9,25.612-20.408,3.114-40.046-11.511-43.093-31.669C205.589,50.619,219.3,31.281,240.006,27.7c3.892-.674,3.869-.743,3.936-4.175.04-2.042-.593-3.141-2.779-3.174-1.69-.025-3-.739-2.883-2.7.107-1.834,1.467-2.3,3.018-2.333,1.742-.042,3.485-.01,5.228-.01Zm33.051,50.125A32.975,32.975,0,1,0,246.57,98.519,33.133,33.133,0,0,0,279.577,65.456Z" transform="translate(-208.321 -15.297)"/><path class="c" d="M219.692,49.08a1.06,1.06,0,0,1-.269.6c-2.524,2.538-5.007,5.126-7.687,7.49-.347.306-2.01-.334-2.558-.971a2.635,2.635,0,0,1-.183-2.54,57.747,57.747,0,0,1,6.764-6.882C217.355,45.461,219.72,46.918,219.692,49.08Z" transform="translate(-208.541 -31.453)"/><path class="c" d="M345.359,49.083c.068-2.235,2.266-3.506,3.868-2.148a60.062,60.062,0,0,1,6.614,6.7,2.853,2.853,0,0,1-.225,2.72c-.506.62-2.22,1.165-2.6.828-2.628-2.312-5.054-4.855-7.513-7.355C345.321,49.648,345.383,49.228,345.359,49.083Z" transform="translate(-279.789 -31.505)"/><path class="c" d="M282.692,84q0-4.391,0-8.781c0-1.862.3-3.6,2.609-3.808,1.742-.158,2.723,1.264,2.739,3.908.032,5.222-.131,10.449.1,15.661a11.148,11.148,0,0,0,1.747,5.181c1.764,2.8,3.924,5.354,5.9,8.025,1.075,1.455,1.74,3.072-.042,4.361-1.6,1.158-3.033.3-4.089-1.078-2.688-3.519-5.416-7.014-7.929-10.657a7.56,7.56,0,0,1-.992-3.794C282.6,90.018,282.691,87.007,282.692,84Z" transform="translate(-247.09 -44.556)"/></g></g></g></svg>